<?xml version="1.0" encoding="utf-8"?>
<!-- Generator: Adobe Illustrator 22.0.1, SVG Export Plug-In . SVG Version: 6.00 Build 0)  -->
<svg version="1.1" id="Layer_1" xmlns="http://www.w3.org/2000/svg" xmlns:xlink="http://www.w3.org/1999/xlink" x="0px" y="0px"
	 viewBox="0 0 512 512" style="enable-background:new 0 0 512 512;" xml:space="preserve">
<style type="text/css">
	.st0{fill:#167DBF;}
	.st1{fill:#105B84;}
	.st2{fill:#F2F2F2;}
	.st3{fill:#FFFFFF;}
	.st4{fill:#F1774F;}
</style>
<path class="st0" d="M256,0C114.6,0,0,114.6,0,256c0,113.7,74.1,210.1,176.7,243.5l318.5-334.9C458.4,68.4,365.2,0,256,0z"/>
<path class="st1" d="M176.7,499.5c25,8.1,51.6,12.5,79.3,12.5c141.4,0,256-114.6,256-256c0-32.2-6-63-16.8-91.4l-61.1-61.1
	l-66.8,66.8l50.3,50.3l2.8,13.9l-30.8-30.8l-17.7,21l-85-85L346,327.4l-208-208l-36,10.1l-36.4,259L176.7,499.5z"/>
<path class="st2" d="M367.3,170.3h33.4c6.1,0,11.1,5,11.1,11.1v33.4c0,6.1-5,11.1-11.1,11.1s-11.1-5-11.1-11.1v-11.1h-22.3v139.1
	h66.8V103.5C397.2,103.5,367.3,133.4,367.3,170.3z"/>
<path class="st3" d="M230.4,120l161.4,229.6l35.4-27L292.1,145.7C277.1,126,253.3,117,230.4,120z"/>
<g>
	<path class="st2" d="M239,186.2l135.2,176.9l26.5-20.3L230.4,120C221.6,141.3,224,166.6,239,186.2z"/>
	<path class="st3" d="M122.1,135.3l15.9-15.9l-15.9-15.9c-24.6,0-44.5,19.9-44.5,44.5v194.8h44.5l15.9-64.6l-15.9-15.9l15.9-15.9
		l-15.9-15.9l15.9-15.9l-15.9-15.9l15.9-15.9l-15.9-15.9l15.9-15.9L122.1,135.3z"/>
</g>
<path class="st4" d="M256,281.6H111.3c-33.8,0-61.2,27.4-61.2,61.2S77.5,404,111.3,404l59.5-20.5l44.7,11.1l40.4-11.1l11.1-40.7
	L256,281.6z"/>
<path class="st4" d="M400.7,281.6H256V384l144.7,20c33.8,0,61.2-27.4,61.2-61.2C461.9,309,434.5,281.6,400.7,281.6z"/>
<path class="st4" d="M400.7,278.3H256l-11.1,22.3h155.8c23.3,0,42.3,19,42.3,42.3s-19,42.3-42.3,42.3h-66.2L318,395.7l33.4,11.5
	l49.3,0.1c35.6,0,64.6-29,64.6-64.6S436.3,278.3,400.7,278.3z"/>
<path class="st4" d="M111.3,300.5H256v-22.3H111.3c-35.6,0-64.6,29-64.6,64.6s29,64.6,64.6,64.6l7-11.5l-7-10.8
	c-23.3,0-42.3-19-42.3-42.3S88,300.5,111.3,300.5z"/>
<path class="st3" d="M334.5,385.1h-36.7c-6.5,0-9.2-2.1-13.9-5.9c-5.7-4.6-13.5-10.8-27.8-10.8c-14.3,0-22.1,6.2-27.8,10.8
	c-4.8,3.8-7.4,5.9-13.9,5.9s-9.2-2.1-13.9-5.9c-5.7-4.6-13.5-10.8-27.8-10.8c-14.3,0-22.1,6.2-27.8,10.8c-4.8,3.8-7.4,5.9-13.9,5.9
	h-19.5v22.3h19.5c14.3,0,22.1-6.2,27.8-10.8c4.8-3.8,7.4-5.9,13.9-5.9c6.5,0,9.2,2.1,13.9,5.9c5.7,4.6,13.5,10.8,27.8,10.8
	c14.3,0,22.1-6.2,27.8-10.8c4.8-3.8,7.4-5.9,13.9-5.9c6.5,0,9.2,2.1,13.9,5.9c5.7,4.6,13.5,10.8,27.8,10.8l53.6-0.1L334.5,385.1z"/>
</svg>
